<?xml version="1.0" encoding="UTF-8"?>
<svg version="1.1" xmlns="http://www.w3.org/2000/svg" width="57" height="57">
<path d="M0 0 C18.81 0 37.62 0 57 0 C57 18.81 57 37.62 57 57 C38.19 57 19.38 57 0 57 C0 38.19 0 19.38 0 0 Z " fill="#FBFBFD" transform="translate(0,0)"/>
<path d="M0 0 C1.81274414 0.01450195 1.81274414 0.01450195 3.66210938 0.02929688 C5.55606445 0.06700195 5.55606445 0.06700195 7.48828125 0.10546875 C9.39963867 0.12577148 9.39963867 0.12577148 11.34960938 0.14648438 C14.50042182 0.18188676 17.6503917 0.23127085 20.80078125 0.29296875 C20.80078125 1.28296875 20.80078125 2.27296875 20.80078125 3.29296875 C12.22078125 3.62296875 3.64078125 3.95296875 -5.19921875 4.29296875 C-5.19921875 5.61296875 -5.19921875 6.93296875 -5.19921875 8.29296875 C7.67078125 8.78796875 7.67078125 8.78796875 20.80078125 9.29296875 C20.80078125 12.59296875 20.80078125 15.89296875 20.80078125 19.29296875 C19.58390625 19.18984375 18.36703125 19.08671875 17.11328125 18.98046875 C13.61641334 18.99289102 12.85016142 19.25901988 9.80078125 21.35546875 C7.29100002 25.04170993 7.17469289 26.91035026 7.80078125 31.29296875 C8.75460187 32.98648698 9.74860621 34.65873943 10.80078125 36.29296875 C8.02936408 36.37386417 5.26030306 36.43340937 2.48828125 36.48046875 C1.30975586 36.51817383 1.30975586 36.51817383 0.10742188 36.55664062 C-0.64990234 36.56630859 -1.40722656 36.57597656 -2.1875 36.5859375 C-2.88399658 36.60164795 -3.58049316 36.6173584 -4.2980957 36.63354492 C-6.19921875 36.29296875 -6.19921875 36.29296875 -7.92504883 35.1965332 C-9.83765732 32.33916428 -9.58821351 29.95314628 -9.59765625 26.54296875 C-9.60052643 25.88844727 -9.60339661 25.23392578 -9.60635376 24.55957031 C-9.60839243 23.17772556 -9.60287621 21.79585182 -9.59033203 20.4140625 C-9.57427311 18.30012425 -9.59018476 16.18809762 -9.609375 14.07421875 C-9.60739253 12.73046453 -9.60354877 11.38671151 -9.59765625 10.04296875 C-9.59427246 8.8209375 -9.59088867 7.59890625 -9.58740234 6.33984375 C-9.19921875 3.29296875 -9.19921875 3.29296875 -8.06176758 1.3894043 C-5.33136637 -0.21791407 -3.15116302 -0.04438258 0 0 Z " fill="#C068EA" transform="translate(20.19921875,8.70703125)"/>
<path d="M0 0 C2 1.5 2 1.5 3 4 C3.04357233 5.35346548 3.03988447 6.70892082 3 8.0625 C2.59004388 11.88775011 2.59004388 11.88775011 4.5 13.875 C4.995 14.24625 5.49 14.6175 6 15 C6 15.66 6 16.32 6 17 C3.03824877 16.38722388 1.61941217 15.74627478 -1 14 C-2.134375 14.061875 -3.26875 14.12375 -4.4375 14.1875 C-8 14 -8 14 -10.4375 11.8125 C-12.13487153 8.75723125 -12.70005835 7.41278446 -12 4 C-8.80946787 -0.91873703 -5.3904099 -0.68449649 0 0 Z " fill="#FECCAD" transform="translate(41,30)"/>
<path d="M0 0 C1.81274414 0.01450195 1.81274414 0.01450195 3.66210938 0.02929688 C5.55606445 0.06700195 5.55606445 0.06700195 7.48828125 0.10546875 C9.39963867 0.12577148 9.39963867 0.12577148 11.34960938 0.14648438 C14.50042182 0.18188676 17.6503917 0.23127085 20.80078125 0.29296875 C20.80078125 1.28296875 20.80078125 2.27296875 20.80078125 3.29296875 C12.22078125 3.62296875 3.64078125 3.95296875 -5.19921875 4.29296875 C-6.09561127 7.87853883 -6.31549721 10.50239067 -6.296875 14.15234375 C-6.29365234 15.26738281 -6.29042969 16.38242187 -6.28710938 17.53125 C-6.27873047 18.69011719 -6.27035156 19.84898438 -6.26171875 21.04296875 C-6.25720703 22.21730469 -6.25269531 23.39164063 -6.24804688 24.6015625 C-6.23626969 27.49874947 -6.21982201 30.39583329 -6.19921875 33.29296875 C-4.87921875 33.95296875 -3.55921875 34.61296875 -2.19921875 35.29296875 C-4.57421875 35.41796875 -4.57421875 35.41796875 -7.19921875 35.29296875 C-10.58587091 31.90631659 -9.50256071 27.17142326 -9.52148438 22.59960938 C-9.51930908 21.90327393 -9.51713379 21.20693848 -9.51489258 20.48950195 C-9.51173564 18.36682669 -9.53517636 16.24554939 -9.56054688 14.12304688 C-9.56282021 12.77474134 -9.56352321 11.42643206 -9.5625 10.078125 C-9.56548096 8.849729 -9.56846191 7.62133301 -9.5715332 6.35571289 C-9.19921875 3.29296875 -9.19921875 3.29296875 -8.06396484 1.38720703 C-5.3318085 -0.21603004 -3.15086859 -0.04437843 0 0 Z " fill="#E968CD" transform="translate(20.19921875,8.70703125)"/>
<path d="M0 0 C7.92 0 15.84 0 24 0 C24 0.99 24 1.98 24 3 C15.75 3 7.5 3 -1 3 C-0.67 2.01 -0.34 1.02 0 0 Z " fill="#FDCDB0" transform="translate(16,13)"/>
<path d="M0 0 C0 0.99 0 1.98 0 3 C-8.25 3 -16.5 3 -25 3 C-25 2.67 -25 2.34 -25 2 C-16.6030674 0.62707087 -8.51372785 -0.31274919 0 0 Z " fill="#B17FF7" transform="translate(41,9)"/>
<path d="M0 0 C1.134375 0.020625 2.26875 0.04125 3.4375 0.0625 C3.4375 1.0525 3.4375 2.0425 3.4375 3.0625 C2.344375 3.165625 1.25125 3.26875 0.125 3.375 C-3.39797709 3.79579605 -3.39797709 3.79579605 -5.4375 5.25 C-6.99682705 7.76224914 -7.23933438 10.15400946 -7.5625 13.0625 C-8.2225 13.0625 -8.8825 13.0625 -9.5625 13.0625 C-9.875 9.875 -9.875 9.875 -9.5625 6.0625 C-7.125 3.1875 -7.125 3.1875 -4.5625 1.0625 C-3.5625 0.0625 -3.5625 0.0625 0 0 Z " fill="#F1E7F7" transform="translate(36.5625,26.9375)"/>
<path d="M0 0 C1.47668858 0.0133035 2.95331108 0.03716415 4.4296875 0.0703125 C5.18378906 0.07933594 5.93789063 0.08835937 6.71484375 0.09765625 C8.57826004 0.1212438 10.44151343 0.15711531 12.3046875 0.1953125 C12.3046875 0.5253125 12.3046875 0.8553125 12.3046875 1.1953125 C11.32886719 1.29328125 10.35304688 1.39125 9.34765625 1.4921875 C7.43919922 1.71648438 7.43919922 1.71648438 5.4921875 1.9453125 C3.59533203 2.15414063 3.59533203 2.15414063 1.66015625 2.3671875 C-1.76227727 2.8889628 -1.76227727 2.8889628 -3.64453125 5.2734375 C-3.99128906 5.90765625 -4.33804687 6.541875 -4.6953125 7.1953125 C-5.3203125 4.8203125 -5.3203125 4.8203125 -5.6953125 2.1953125 C-3.6953125 0.1953125 -3.6953125 0.1953125 0 0 Z " fill="#D570E2" transform="translate(17.6953125,8.8046875)"/>
</svg>
