<?xml version="1.0" encoding="UTF-8"?>
<svg version="1.1" xmlns="http://www.w3.org/2000/svg" width="57" height="57">
<path d="M0 0 C18.81 0 37.62 0 57 0 C57 18.81 57 37.62 57 57 C38.19 57 19.38 57 0 57 C0 38.19 0 19.38 0 0 Z " fill="#F8F9FD" transform="translate(0,0)"/>
<path d="M0 0 C4.8829398 2.05698645 7.08695979 6.50305848 9.140625 11.1328125 C10.0612158 13.2608418 10.0612158 13.2608418 12 16 C12.375 18.4375 12.375 18.4375 12 21 C9.429282 24.33241223 6.96597765 25.74446631 3 27 C0.17996651 27.2413163 -2.49473703 27.38085429 -5.3125 27.375 C-6.06926025 27.37411377 -6.82602051 27.37322754 -7.60571289 27.37231445 C-13.3636047 27.24985902 -17.22641611 26.40970278 -22 23 C-24.47608302 19.28587547 -24.65490912 16.30602748 -24 12 C-18.77074293 1.74261112 -11.03892658 -1.24260168 0 0 Z " fill="#AB7EF8" transform="translate(34,19)"/>
<path d="M0 0 C2 0.75 2 0.75 4 3.75 C4.598125 3.87375 5.19625 3.9975 5.8125 4.125 C9.08368244 5.05962355 10.73762424 7.29909293 13 9.75 C13 9.09 13 8.43 13 7.75 C13.78375 7.481875 14.5675 7.21375 15.375 6.9375 C18.28114923 5.90185568 18.28114923 5.90185568 20 2.75 C23.11743233 4.25098594 26.15501823 5.77431822 29 7.75 C29 8.74 29 9.73 29 10.75 C24.03688395 13.70125355 20.24050894 14.26389726 14.625 14.1875 C13.4966272 14.17940308 13.4966272 14.17940308 12.34545898 14.17114258 C6.62754542 14.01401951 2.73725276 13.13375197 -2 9.75 C-4.29013653 6.3147952 -4.17842973 4.764669 -4 0.75 C-2 -0.25 -2 -0.25 0 0 Z " fill="#5B83FE" transform="translate(14,32.25)"/>
<path d="M0 0 C3 1 3 1 5 4 C5 5.32 5 6.64 5 8 C4.34 8 3.68 8 3 8 C3 7.34 3 6.68 3 6 C2.34 6 1.68 6 1 6 C1.309375 6.721875 1.61875 7.44375 1.9375 8.1875 C2.93942963 10.83966667 3.69532299 13.1817377 4 16 C3.34 16.66 2.68 17.32 2 18 C0.68 18 -0.64 18 -2 18 C-2 18.66 -2 19.32 -2 20 C-5.43774463 18.85408512 -6.17413159 18.04311402 -8 15 C-8 13.68 -8 12.36 -8 11 C-7.01 11.33 -6.02 11.66 -5 12 C-5 12.66 -5 13.32 -5 14 C-4.34 14 -3.68 14 -3 14 C-3.4640625 12.9171875 -3.4640625 12.9171875 -3.9375 11.8125 C-4.93942963 9.16033333 -5.69532299 6.8182623 -6 4 C-5.34 3.34 -4.68 2.68 -4 2 C-2.68 2 -1.36 2 0 2 C0 1.34 0 0.68 0 0 Z " fill="#F5F0FD" transform="translate(29,22)"/>
<path d="M0 0 C2.16949153 5.30320151 2.16949153 5.30320151 1.4375 8.3125 C0 10 0 10 -2.4375 10.875 C-5 11 -5 11 -8 9 C-9.9896995 8.60986284 -11.99019869 8.26797351 -14 8 C-14 5.69 -14 3.38 -14 1 C-12.66961551 0.6550855 -11.33542939 0.32483418 -10 0 C-9.195625 -0.20625 -8.39125 -0.4125 -7.5625 -0.625 C-4.76208787 -1.03481641 -2.72398926 -0.70045438 0 0 Z " fill="#E878EB" transform="translate(42,8)"/>
<path d="M0 0 C0 0.99 0 1.98 0 3 C0.30791692 4.671549 0.64386903 6.33805547 1 8 C1.33333333 9.66666667 1.66666667 11.33333333 2 13 C0 13 0 13 -1.625 11.5 C-2.07875 11.005 -2.5325 10.51 -3 10 C-3.33 11.32 -3.66 12.64 -4 14 C-7.875 12.25 -7.875 12.25 -9 10 C-10.65 10 -12.3 10 -14 10 C-11.62444713 1.28963947 -8.64808218 -0.57653881 0 0 Z " fill="#867EFC" transform="translate(24,23)"/>
<path d="M0 0 C2.65282698 1.39468477 3.96511707 2.73901896 6 5 C5.67 6.65 5.34 8.3 5 10 C4.01 9.67 3.02 9.34 2 9 C1.34 9.66 0.68 10.32 0 11 C-0.45375 9.865625 -0.9075 8.73125 -1.375 7.5625 C-2.57095806 3.95278308 -2.57095806 3.95278308 -5 3 C-5 3.66 -5 4.32 -5 5 C-8.96 4.67 -12.92 4.34 -17 4 C-11.93508345 -1.06491655 -6.94798476 -0.85040439 0 0 Z " fill="#E077EE" transform="translate(34,19)"/>
<path d="M0 0 C3.11743233 1.50098594 6.15501823 3.02431822 9 5 C9 5.99 9 6.98 9 8 C3.44860651 10.48351814 -1.16524985 9.85330338 -7 9 C-7 8.01 -7 7.02 -7 6 C-6.401875 5.7525 -5.80375 5.505 -5.1875 5.25 C-2.71352479 3.83629988 -1.56629745 2.34944617 0 0 Z " fill="#6480FE" transform="translate(34,35)"/>
<path d="M0 0 C2.95784711 0.96301999 5.87010092 1.94685947 8.75 3.125 C10.90830973 4.12081542 10.90830973 4.12081542 13 4 C13 5.65 13 7.3 13 9 C11.265625 9.68359375 11.265625 9.68359375 9 10 C6.859375 8.78515625 6.859375 8.78515625 4.75 7.0625 C4.04359375 6.49660156 3.3371875 5.93070313 2.609375 5.34765625 C2.07828125 4.90292969 1.5471875 4.45820312 1 4 C0.67 4.66 0.34 5.32 0 6 C0 4.02 0 2.04 0 0 Z " fill="#9781FB" transform="translate(33,31)"/>
<path d="M0 0 C0.99 0.33 1.98 0.66 3 1 C3 1.66 3 2.32 3 3 C3.61875 2.649375 4.2375 2.29875 4.875 1.9375 C5.57625 1.628125 6.2775 1.31875 7 1 C7.66 1.33 8.32 1.66 9 2 C9.625 4.5625 9.625 4.5625 10 7 C8.68 7 7.36 7 6 7 C6 7.66 6 8.32 6 9 C2.56225537 7.85408512 1.82586841 7.04311402 0 4 C0 2.68 0 1.36 0 0 Z " fill="#E6E8FE" transform="translate(21,33)"/>
<path d="M0 0 C3.11743233 1.50098594 6.15501823 3.02431822 9 5 C9 5.99 9 6.98 9 8 C8.01 8.495 8.01 8.495 7 9 C4 8 4 8 2 5 C-0.58380177 4.74969023 -0.58380177 4.74969023 -3 5 C-2.01 3.35 -1.02 1.7 0 0 Z " fill="#7C7FFD" transform="translate(34,35)"/>
<path d="M0 0 C2.05078125 0.03255208 4.1015625 0.06510417 6.15234375 0.09765625 C6.15234375 3.20317291 5.61297225 4.45026709 4.15234375 7.09765625 C0.78513988 5.70433051 -0.83360865 4.11872765 -2.84765625 1.09765625 C-1.84765625 0.09765625 -1.84765625 0.09765625 0 0 Z " fill="#A27BF9" transform="translate(17.84765625,22.90234375)"/>
<path d="M0 0 C1.33333333 0.66666667 2.66666667 1.33333333 4 2 C4.66 2.309375 5.32 2.61875 6 2.9375 C8.24958074 4.13258977 10.12811994 5.26182566 12 7 C12 8.32 12 9.64 12 11 C11.34 11 10.68 11 10 11 C9.67 9.68 9.34 8.36 9 7 C8.401875 6.896875 7.80375 6.79375 7.1875 6.6875 C4.67774646 5.89872032 3.82982914 4.82982914 2 3 C-0.10332891 2.28552357 -0.10332891 2.28552357 -2 2 C-1.34 1.34 -0.68 0.68 0 0 Z " fill="#9482FB" transform="translate(14,25)"/>
<path d="M0 0 C2.3431213 0.25561323 4.67843403 0.59270772 7 1 C7.33 1.66 7.66 2.32 8 3 C7.0625 5.125 7.0625 5.125 6 7 C5.34 6.67 4.68 6.34 4 6 C3.34 6.66 2.68 7.32 2 8 C0.74335022 5.09399739 0 3.20395416 0 0 Z " fill="#CF7EF2" transform="translate(32,22)"/>
<path d="M0 0 C2.75 -0.25 2.75 -0.25 6 0 C8.375 2 8.375 2 10 4 C7.36749612 5.31625194 6.19820944 4.74813658 3.375 4.0625 C2.14910156 3.77052734 2.14910156 3.77052734 0.8984375 3.47265625 C-0.04128906 3.23869141 -0.04128906 3.23869141 -1 3 C-0.67 2.01 -0.34 1.02 0 0 Z " fill="#FAD6CE" transform="translate(28,16)"/>
<path d="M0 0 C0.99 0.33 1.98 0.66 3 1 C2.3125 2.9375 2.3125 2.9375 1 5 C-1.625 5.75 -1.625 5.75 -4 6 C-4.33 5.01 -4.66 4.02 -5 3 C-2.6875 1.4375 -2.6875 1.4375 0 0 Z " fill="#B876F5" transform="translate(41,13)"/>
<path d="M0 0 C1.45823212 -0.0270043 2.91660675 -0.04639787 4.375 -0.0625 C5.18710937 -0.07410156 5.99921875 -0.08570312 6.8359375 -0.09765625 C9 0 9 0 11 1 C11 1.66 11 2.32 11 3 C7.04 2.67 3.08 2.34 -1 2 C-0.67 1.34 -0.34 0.68 0 0 Z " fill="#CB7AF2" transform="translate(18,21)"/>
<path d="M0 0 C4.83256305 0.41421969 6.82679218 2.46413986 10 6 C8.68 6 7.36 6 6 6 C5.34 5.01 4.68 4.02 4 3 C1.41619823 2.74969023 1.41619823 2.74969023 -1 3 C-0.67 2.01 -0.34 1.02 0 0 Z " fill="#7680FD" transform="translate(11,30)"/>
<path d="M0 0 C2.64 0 5.28 0 8 0 C8 0.99 8 1.98 8 3 C5.03 2.67 2.06 2.34 -1 2 C-0.67 1.34 -0.34 0.68 0 0 Z " fill="#B579F6" transform="translate(16,23)"/>
</svg>
