<?xml version="1.0" encoding="UTF-8"?>
<svg version="1.1" xmlns="http://www.w3.org/2000/svg" width="57" height="57">
<path d="M0 0 C18.81 0 37.62 0 57 0 C57 18.81 57 37.62 57 57 C38.19 57 19.38 57 0 57 C0 38.19 0 19.38 0 0 Z " fill="#F7F7FD" transform="translate(0,0)"/>
<path d="M0 0 C5.87451992 -0.47521934 8.91809582 1.04335215 13.42578125 4.74609375 C14.95703125 6.25390625 14.95703125 6.25390625 15.95703125 8.25390625 C15.87051494 9.80003639 15.71700489 11.34300012 15.51953125 12.87890625 C15.36677734 14.10480469 15.36677734 14.10480469 15.2109375 15.35546875 C15.12714844 15.98195313 15.04335938 16.6084375 14.95703125 17.25390625 C14.29703125 17.25390625 13.63703125 17.25390625 12.95703125 17.25390625 C12.29703125 14.94390625 11.63703125 12.63390625 10.95703125 10.25390625 C4.52203125 10.74890625 4.52203125 10.74890625 -2.04296875 11.25390625 C-1.92899331 13.69238076 -1.80225901 16.12903799 -1.66796875 18.56640625 C-1.63703125 19.25669922 -1.60609375 19.94699219 -1.57421875 20.65820312 C-1.36171956 24.32381414 -1.12363014 26.13291417 0.95703125 29.25390625 C5.60848717 29.634154 5.60848717 29.634154 9.95703125 28.25390625 C9.95703125 28.91390625 9.95703125 29.57390625 9.95703125 30.25390625 C10.78203125 30.52203125 11.60703125 30.79015625 12.45703125 31.06640625 C23.52459882 34.82147382 23.52459882 34.82147382 24.95703125 36.25390625 C25.05493695 37.75128749 25.08677989 39.25333517 25.08203125 40.75390625 C25.08589844 41.9759375 25.08589844 41.9759375 25.08984375 43.22265625 C24.95703125 45.25390625 24.95703125 45.25390625 23.95703125 46.25390625 C20.8662166 46.35507545 17.7982057 46.39359183 14.70703125 46.38671875 C13.77858398 46.38767548 12.85013672 46.3886322 11.89355469 46.38961792 C9.9264316 46.3902998 7.95930629 46.38844497 5.9921875 46.38427734 C2.97000099 46.3789292 -0.0520369 46.38422207 -3.07421875 46.390625 C-4.98046908 46.38996422 -6.88671932 46.38868306 -8.79296875 46.38671875 C-10.15856934 46.3897551 -10.15856934 46.3897551 -11.55175781 46.39285278 C-17.92801906 46.36885594 -17.92801906 46.36885594 -19.04296875 45.25390625 C-19.2109375 43.2578125 -19.2109375 43.2578125 -19.23046875 40.81640625 C-19.24464844 40.01332031 -19.25882813 39.21023437 -19.2734375 38.3828125 C-19.04296875 36.25390625 -19.04296875 36.25390625 -17.04296875 34.25390625 C-14.4678727 33.47409347 -11.87488694 32.85376051 -9.2578125 32.23046875 C-6.89506018 31.47330808 -6.89506018 31.47330808 -6.109375 29.33984375 C-5.83090517 26.94269935 -5.83090517 26.94269935 -8.04296875 24.25390625 C-9.95672356 17.49669789 -11.22883141 10.62425277 -8.85546875 3.87890625 C-7.04296875 1.25390625 -7.04296875 1.25390625 -4.91796875 0.37890625 C-2.17613575 0.29815574 -2.17613575 0.29815574 0 0 Z " fill="#DB74E3" transform="translate(25.04296875,3.74609375)"/>
<path d="M0 0 C1.32 2.31 2.64 4.62 4 7 C4.556875 6.649375 5.11375 6.29875 5.6875 5.9375 C9.44318137 4.41492647 12.2832512 5.76108373 16 7 C17.32 4.69 18.64 2.38 20 0 C21.62580966 0.11398665 23.25067157 0.24155659 24.875 0.375 C25.77992187 0.44460937 26.68484375 0.51421875 27.6171875 0.5859375 C30 1 30 1 32 3 C32.23046875 5.12890625 32.23046875 5.12890625 32.1875 7.5625 C32.18105469 8.36816406 32.17460938 9.17382812 32.16796875 10.00390625 C32 12 32 12 31 13 C27.90918535 13.1011692 24.84117445 13.13968558 21.75 13.1328125 C20.82155273 13.13376923 19.89310547 13.13472595 18.93652344 13.13571167 C16.96940035 13.13639355 15.00227504 13.13453872 13.03515625 13.13037109 C10.01296974 13.12502295 6.99093185 13.13031582 3.96875 13.13671875 C2.06249967 13.13605797 0.15624943 13.13477681 -1.75 13.1328125 C-3.11560059 13.13584885 -3.11560059 13.13584885 -4.50878906 13.13894653 C-10.88505031 13.11494969 -10.88505031 13.11494969 -12 12 C-12.16796875 10.00390625 -12.16796875 10.00390625 -12.1875 7.5625 C-12.20167969 6.75941406 -12.21585938 5.95632812 -12.23046875 5.12890625 C-12 3 -12 3 -10 1 C-6.68421778 -0.18420794 -3.49088913 -0.07933839 0 0 Z " fill="#8907B2" transform="translate(18,37)"/>
<path d="M0 0 C0.12375 1.134375 0.2475 2.26875 0.375 3.4375 C0.58125 4.613125 0.7875 5.78875 1 7 C1.66 7.33 2.32 7.66 3 8 C2.34 8 1.68 8 1 8 C1.103125 9.2375 1.20625 10.475 1.3125 11.75 C1.30051934 15.12854473 1.19248587 15.7666838 -1.0625 18.5 C-4.71252118 20.3638406 -6.95419297 20.59937882 -11 20 C-14.19202141 17.09952153 -14.40968168 14.15011644 -14.61914062 9.9609375 C-14.64169922 9.23132812 -14.66425781 8.50171875 -14.6875 7.75 C-14.72166016 7.00492188 -14.75582031 6.25984375 -14.79101562 5.4921875 C-14.87314054 3.66197508 -14.93825653 1.83101331 -15 0 C-4.44191344 -1.33257403 -4.44191344 -1.33257403 0 0 Z " fill="#E494E9" transform="translate(37,14)"/>
<path d="M0 0 C5.87451992 -0.47521934 8.91809582 1.04335215 13.42578125 4.74609375 C14.95703125 6.25390625 14.95703125 6.25390625 15.95703125 8.25390625 C15.87051494 9.80003639 15.71700489 11.34300012 15.51953125 12.87890625 C15.41769531 13.69617187 15.31585938 14.5134375 15.2109375 15.35546875 C15.12714844 15.98195313 15.04335938 16.6084375 14.95703125 17.25390625 C14.29703125 17.25390625 13.63703125 17.25390625 12.95703125 17.25390625 C12.29703125 14.94390625 11.63703125 12.63390625 10.95703125 10.25390625 C3.03703125 10.74890625 3.03703125 10.74890625 -5.04296875 11.25390625 C-5.70296875 13.23390625 -6.36296875 15.21390625 -7.04296875 17.25390625 C-7.70296875 17.25390625 -8.36296875 17.25390625 -9.04296875 17.25390625 C-10.63772141 12.46964826 -10.52952708 8.63675625 -8.85546875 3.87890625 C-7.04296875 1.25390625 -7.04296875 1.25390625 -4.91796875 0.37890625 C-2.17613575 0.29815574 -2.17613575 0.29815574 0 0 Z " fill="#680A77" transform="translate(25.04296875,3.74609375)"/>
<path d="M0 0 C3.78388518 0.78698452 5.54644327 1.93305409 8 5 C8 6.32 8 7.64 8 9 C17.24 9 26.48 9 36 9 C36.33 7.35 36.66 5.7 37 4 C38.875 1.6875 38.875 1.6875 41 0 C41.99 0 42.98 0 44 0 C44.02689216 1.47906892 44.04634621 2.95827483 44.0625 4.4375 C44.07410156 5.26121094 44.08570313 6.08492187 44.09765625 6.93359375 C44 9 44 9 43 10 C39.90918535 10.1011692 36.84117445 10.13968558 33.75 10.1328125 C32.82155273 10.13376923 31.89310547 10.13472595 30.93652344 10.13571167 C28.96940035 10.13639355 27.00227504 10.13453872 25.03515625 10.13037109 C22.01296974 10.12502295 18.99093185 10.13031582 15.96875 10.13671875 C14.06249967 10.13605797 12.15624943 10.13477681 10.25 10.1328125 C8.88439941 10.13584885 8.88439941 10.13584885 7.49121094 10.13894653 C1.11494969 10.11494969 1.11494969 10.11494969 0 9 C-0.07179964 7.48071962 -0.08392007 5.95832518 -0.0625 4.4375 C-0.05347656 3.61121094 -0.04445313 2.78492188 -0.03515625 1.93359375 C-0.02355469 1.29550781 -0.01195312 0.65742187 0 0 Z " fill="#B43BDE" transform="translate(6,40)"/>
<path d="M0 0 C2.28511527 1.57101675 4.11078093 3.35083671 6 5.375 C9.36591866 3.93246343 11.51047079 2.04235273 14 -0.625 C15.98 0.035 17.96 0.695 20 1.375 C19.01 1.705 18.02 2.035 17 2.375 C16.30341637 4.02938613 15.63903117 5.69754318 15 7.375 C13.375 9.1875 13.375 9.1875 12 10.375 C11.01 9.715 10.02 9.055 9 8.375 C6.15879766 8.73015029 3.71952248 9.46849251 1 10.375 C-3 4.625 -3 4.625 -3 2.375 C-3.99 2.045 -4.98 1.715 -6 1.375 C-2.59813084 -0.81191589 -2.59813084 -0.81191589 0 0 Z " fill="#B527E6" transform="translate(21,34.625)"/>
<path d="M0 0 C4.1979784 1.0494946 5.37343896 1.7167987 8 5 C8 6.32 8 7.64 8 9 C5.36 9 2.72 9 0 9 C0 6.03 0 3.06 0 0 Z " fill="#B425E6" transform="translate(6,40)"/>
<path d="M0 0 C0.804375 0.495 0.804375 0.495 1.625 1 C4.6161026 2.25941162 6.77729983 2.26855835 10 2 C12.30230766 1.10168984 12.30230766 1.10168984 14 0 C13.52797514 4.24822374 11.03344482 6.19989709 8 9 C4.63704165 7.55873214 2.37072898 5.79407345 0 3 C0 2.01 0 1.02 0 0 Z " fill="#D95EEB" transform="translate(21,32)"/>
<path d="M0 0 C2.0625 1.4375 2.0625 1.4375 4 4 C4.05823431 7.07583023 3.59222907 9.98735648 3 13 C2.34 13 1.68 13 1 13 C0.71125 11.88625 0.4225 10.7725 0.125 9.625 C-0.69241329 5.99708908 -0.69241329 5.99708908 -3 4 C-2.34 3.67 -1.68 3.34 -1 3 C-0.67 2.01 -0.34 1.02 0 0 Z " fill="#840A9C" transform="translate(37,8)"/>
<path d="M0 0 C0.7425 0.495 0.7425 0.495 1.5 1 C5.09090894 2.43636358 8.14456127 2.12851462 12 2 C11 4 11 4 9.2578125 4.73828125 C7.15383442 5.30473689 5.17027229 5.79081713 3 6 C1 4.8125 1 4.8125 0 3 C0 2.01 0 1.02 0 0 Z " fill="#D14EE9" transform="translate(21,32)"/>
<path d="M0 0 C0.33 0 0.66 0 1 0 C0.67 2.97 0.34 5.94 0 9 C-0.66 9 -1.32 9 -2 9 C-2.20140476 5.37471432 -1.85776765 3.13498292 0 0 Z " fill="#9328A9" transform="translate(40,12)"/>
</svg>
